<?xml version="1.0" ?><!DOCTYPE svg  PUBLIC '-//W3C//DTD SVG 1.1//EN'  'http://www.w3.org/Graphics/SVG/1.1/DTD/svg11.dtd'><svg enable-background="new 0 0 100 100" height="100px" id="Layer_1" version="1.1" viewBox="0 0 100 100" width="100px" xml:space="preserve" xmlns="http://www.w3.org/2000/svg" xmlns:xlink="http://www.w3.org/1999/xlink"><g><path clip-rule="evenodd" d="M67.854,51.29h-8.07c-0.456,0.462-1.089,0.75-1.785,0.75h-1.295   c-1.38,0-2.512-1.131-2.512-2.512s1.132-2.512,2.512-2.512h1.295c0.696,0,1.329,0.288,1.785,0.75h9.886   c0.998-2.476,1.553-5.178,1.553-8.008c0-4.026-1.115-7.796-3.048-11.02c-1.015,0.124-2.035,0.208-3.056,0.208   c-5.231,0-10.346-1.661-14.581-4.696c-4.63,4.798-11.039,7.604-17.966,7.604c-0.921,0-1.847-0.067-2.766-0.17   c-1.015,2.496-1.579,5.219-1.579,8.074c0,11.854,9.645,21.498,21.497,21.498C57.337,61.256,64.033,57.275,67.854,51.29z" fill-rule="evenodd"/><polygon clip-rule="evenodd" fill-rule="evenodd" points="49.145,71.564 47.946,85.458 49.617,87.127 51.266,85.479 49.699,71.564     "/><path clip-rule="evenodd" d="M79.18,39.805c0-3.66-2.391-6.768-5.689-7.86c0.812,2.46,1.256,5.085,1.256,7.813   c0,2.768-0.458,5.429-1.291,7.919C76.773,46.595,79.18,43.479,79.18,39.805z" fill-rule="evenodd"/><path clip-rule="evenodd" d="M49.725,64.78c-0.882,0-1.754-0.049-2.613-0.138l1.549,3.398h1.546l1.759-3.366   C51.228,64.739,50.481,64.78,49.725,64.78z" fill-rule="evenodd"/><path clip-rule="evenodd" d="M50.751,18.286c-0.34-0.017-0.681-0.026-1.026-0.026   c-7.64,0-14.357,4.01-18.171,10.032c0.34,0.017,0.681,0.038,1.019,0.038C40.054,28.33,46.838,24.525,50.751,18.286z" fill-rule="evenodd"/><path clip-rule="evenodd" d="M67.421,57.42c-3.027,3.03-6.82,5.293-11.066,6.461l-3.271,6.261l1.778,15.785   c0.061,0.532-0.126,1.063-0.506,1.442l-2.909,2.909c-0.33,0.331-0.778,0.517-1.244,0.517h-1.172c-0.468,0-0.917-0.186-1.247-0.517   l-2.909-2.909c-0.367-0.367-0.554-0.878-0.509-1.396l1.366-15.86l-2.87-6.298c-4.051-1.157-7.682-3.312-10.615-6.177   c-8.729,5.791-14.52,15.694-14.52,26.896V95h10.741v-8.551c0-0.973,0.789-1.763,1.762-1.763c0.974,0,1.762,0.79,1.762,1.763V95   h35.146v-8.551c0-0.973,0.79-1.763,1.763-1.763c0.972,0,1.761,0.79,1.761,1.763V95h11.611V84.533   C82.272,73.19,76.334,63.179,67.421,57.42z" fill-rule="evenodd"/><path clip-rule="evenodd" d="M52.807,21.539c3.597,2.511,7.905,3.884,12.313,3.884   c0.196,0,0.392-0.019,0.588-0.024c-2.912-3.239-6.793-5.585-11.184-6.59C54.005,19.761,53.432,20.673,52.807,21.539z" fill-rule="evenodd"/><path clip-rule="evenodd" d="M25.864,28.202v-2.398c0-9.528,6.938-17.281,15.466-17.281h16.662   c8.529,0,15.467,7.752,15.467,17.281v2.497c1.26,0.281,2.448,0.753,3.522,1.401v-3.898C76.981,14.333,68.463,5,57.992,5H41.33   c-10.471,0-18.989,9.333-18.989,20.804v3.615C23.426,28.836,24.611,28.423,25.864,28.202z" fill-rule="evenodd"/><path clip-rule="evenodd" d="M19.636,39.805c0,3.929,2.751,7.22,6.426,8.067   c-0.875-2.547-1.357-5.274-1.357-8.114c0-2.801,0.47-5.494,1.323-8.011C22.369,32.606,19.636,35.889,19.636,39.805z" fill-rule="evenodd"/></g></svg>